<svg xmlns="http://www.w3.org/2000/svg" xmlns:xlink="http://www.w3.org/1999/xlink" xmlns:fi="http://pattern.flaticon.com/" x="0" y="0" width="700" height="350" viewBox="0 0 700 350"><rect x="0px" y="0px" width="100%" height="100%" opacity="0" fill="#8460c4"/><defs><path d="m51.16 34.74c8.2-2.66 8.37-12.49 8.37-12.9 0-.2163702-.0701779-.4269038-.2-.6-.24-.34-6.15-8.19-14.35-5.52-2.2615655.7627698-4.3780141 1.9021358-6.26 3.37.8217756-2.2435265 1.2546558-4.6108403 1.28-7 0-8.62-9.29-11.82-9.68-11.95-.2075731-.07010994-.4324269-.07010994-.64 0-.39.13-9.68 3.33-9.68 12 .0278684 2.3889166.4606714 4.7558076 1.28 7-1.8849025-1.4868824-4.0083514-2.6432829-6.28-3.42-8.19-2.67-14.09 5.18-14.33 5.52-.12982213.1730962-.2.3836298-.2.6 0 .41.17 10.24 8.37 12.9 2.2784024.7174059 4.6629692 1.0387305 7.05.95-1.9826483 1.3288034-3.7242619 2.9858726-5.15 4.9-5.07 7 .57 15 .82 15.36.1205161.1801296.301364.311333.51.37 1.6028575.4589018 3.2627624.6878542 4.93.68 7.1 0 11-4.25 13-11 2.05 6.79 5.93 11 13 11 1.6643665.0036572 3.3208473-.2286542 4.92-.69.208636-.058667.3894839-.1898704.51-.37.25-.34 5.89-8.38.82-15.36-1.4277773-1.9088207-3.1651383-3.5650597-5.14-4.9 2.386353.0897957 4.7705403-.2280959 7.05-.94zm-21.16-32.57c1.52.6 8 3.55 8 9.93 0 5.77-3.26 11.76-6.88 16.22-.18-.07-.12.9-.12-11.22 0-.5522847-.4477153-1-1-1s-1 .4477153-1 1v10.42c-1.2135762-1.812548-2.5748761-3.5216985-4.07-5.11-1.8078685-3.144178-2.8141275-6.6849735-2.93-10.31 0-6.36 6.48-9.32 8-9.93zm-20.54 30.67c-6.05-2-6.87-9.05-7-10.68 1-1.26 5.84-6.51 11.91-4.54 5.5 1.79 10.18 6.73 13.3 11.57-.1.13.76.34-10.7-3.37-.5170805-.1475676-1.0582834.1401931-1.225095.65139-.1668117.511197.1004975 1.0627879.605095 1.24861l9.91 3.22c-2.1049175.5954577-4.155588 1.3682225-6.13 2.31-3.5367484.737118-7.200245.5963464-10.67-.41zm15.84 18.33c-3.73 5.15-10.71 3.74-12.3 3.34-.88-1.39-4.38-7.6-.64-12.74 3.36-4.62 9.56-7.61 15.11-9.07.09.14.55-.58-6.51 9.14-.2643322.4463148-.1435146 1.020651.2782316 1.3226421s1.0043876.2313663 1.3417684-.1626421l6.13-8.44c-.0856276 2.1742917.0113795 4.3519344.29 6.51-.3745135 3.6219068-1.6462033 7.0932762-3.7 10.1zm4.7-19.07c-.5522847 0-1-.4477153-1-1s.4477153-1 1-1 1 .4477153 1 1-.4477153 1-1 1zm17.64 9.67c3.74 5.14.24 11.35-.64 12.74-1.59.4-8.57 1.81-12.3-3.34-3.4-4.68-4.27-11.41-4-17.17.16 0-.42-.77 6.68 9 .192624.3252383.5521755.5140678.9292782.488039s.7073009-.262467.8534132-.611086c.1461122-.3486189.0831645-.7498314-.1626914-1.036953l-6.1-8.44c2.0668956.7664364 4.1943239 1.3585037 6.36 1.77 3.2890614 1.4848516 6.1657316 3.7504869 8.38 6.6zm-14.64-10.48c0-.17-.75.14 10.64-3.57.5045975-.1858221.7719067-.737413.605095-1.24861-.1668116-.5111969-.7080145-.7989576-1.225095-.65139l-9.91 3.18c1.3489188-1.7208457 2.5530325-3.5504295 3.6-5.47 2.4356328-2.6764732 5.4870741-4.7187765 8.89-5.95 6-2 10.87 3.28 11.91 4.54-.1 1.64-.9 8.71-7 10.68-5.45 1.83-12.11.59-17.51-1.51z" transform="matrix(1 0 0 1 106.00000045776369 209.00000015258786)" id="L1_19" fill="#ffffff"/><g transform="matrix(1.0711416006088257 0 0 1.0711416006088257 250 130)" id="L1_18"><path d="M54.284,10.76c-1.017-1.433-2.727-2.228-4.871-2.319c0.297-4.039-1.053-7.178-3.59-8.146   c-2.043-0.78-4.485,0.008-6.682,2.093C38.145,1.503,37,0.997,35.774,0.997c-3.925,0-7,5.051-7,11.5   c0,4.787,1.73,8.886,4.292,10.612c-2.195,2.244-2.707,7.291-2.81,14.039c-1.188-1.844-2.75-3.234-4.795-3.82   c1.391-2.365,1.901-5.933,1.216-9.744c-1.142-6.348-5.061-10.767-8.924-10.081c-1.208,0.217-2.245,0.918-3.069,1.966   c-2.53-1.663-5.074-2.008-6.947-0.878c-2.32,1.399-3.08,4.722-2.082,8.635c-2.038,0.458-3.623,1.524-4.394,3.162   c-1.79,3.806,1.577,9.031,7.665,11.896c2.407,1.133,4.926,1.733,7.216,1.733c0.392,0,0.776-0.018,1.152-0.053   c2.769-0.261,4.787-1.453,5.684-3.357c0.158-0.336,0.262-0.686,0.341-1.041c0.246-0.144,0.481-0.308,0.705-0.495   c7.364,0.969,7.955,15.412,7.955,19.946c0,0.552,0.447,1,1,1s1-0.448,1-1c0-3.359-0.273-8.979-1.81-13.698   c0.031-0.097,0.061-0.195,0.061-0.302c0-6.161,0.008-14.383,2.354-16.581c0.047,0.074,0.084,0.153,0.135,0.225   c1.082,1.523,2.937,2.337,5.278,2.337c0.296,0,0.599-0.013,0.909-0.039c2.581-0.217,5.399-1.33,7.938-3.134s4.519-4.1,5.573-6.465   C55.55,14.819,55.503,12.476,54.284,10.76z M18.107,15.471c2.679-0.48,5.689,3.398,6.602,8.465   c0.665,3.696,0.043,7.262-1.428,9.062c-0.004-0.016-0.012-0.033-0.016-0.049c-0.179-0.734-0.488-1.476-0.912-2.209   c-0.022-0.039-0.044-0.077-0.067-0.115c-0.436-0.733-0.987-1.453-1.643-2.145c-0.029-0.03-0.059-0.06-0.088-0.09   c-0.317-0.329-0.655-0.651-1.019-0.964c-0.018-0.015-0.034-0.031-0.052-0.046c-0.379-0.324-0.781-0.637-1.206-0.939   c-0.047-0.034-0.097-0.065-0.145-0.098c-0.289-0.201-0.587-0.398-0.896-0.587c-0.001-0.001-0.002-0.002-0.004-0.003   c-0.001,0-0.002,0-0.003-0.002c-0.07-0.043-0.145-0.084-0.217-0.126c-0.106-0.063-0.211-0.126-0.318-0.188   c-0.131-0.075-0.26-0.15-0.395-0.223c-0.003-0.002-0.005-0.005-0.009-0.006c-0.319-0.172-0.646-0.339-0.98-0.497c0,0,0,0-0.001,0   c-0.203-0.095-0.407-0.186-0.611-0.273c-0.012-0.116-0.027-0.232-0.036-0.348c-0.008-0.102-0.017-0.204-0.024-0.305   c-0.019-0.291-0.03-0.58-0.033-0.866c0-0.035-0.003-0.07-0.003-0.105c-0.001-0.333,0.009-0.661,0.029-0.984   c0.003-0.052,0.009-0.102,0.012-0.153c0.019-0.269,0.046-0.535,0.079-0.794c0.008-0.065,0.017-0.129,0.026-0.193   c0.041-0.286,0.09-0.568,0.149-0.839c0.002-0.011,0.004-0.022,0.006-0.033c0.203-0.924,0.506-1.756,0.902-2.448   c0.007-0.012,0.007-0.026,0.014-0.038C16.413,16.31,17.192,15.635,18.107,15.471z M8.77,16.303   c1.191-0.717,3.021-0.376,4.895,0.878c0,0.001,0,0.001,0,0.001c-0.196,0.438-0.365,0.908-0.508,1.403   c-0.006,0.021-0.012,0.042-0.018,0.064c-0.14,0.492-0.256,1.007-0.341,1.548l0,0.001c-0.165,1.039-0.223,2.161-0.169,3.336   c0.002,0.051-0.002,0.099,0,0.15c-0.011-0.003-0.023-0.006-0.034-0.009c-1.736-0.52-3.424-0.755-4.955-0.701   C6.785,19.87,7.211,17.242,8.77,16.303z M17.107,37.971c-2.224,0.209-4.83-0.323-7.329-1.499c-4.904-2.308-7.976-6.537-6.706-9.234   c0.6-1.278,2.091-2.017,4.009-2.203c0.432-0.043,0.882-0.056,1.346-0.042c0.073,0.002,0.146,0.007,0.22,0.01   c0.448,0.022,0.907,0.066,1.374,0.138c0.078,0.012,0.158,0.029,0.236,0.042c0.484,0.083,0.972,0.186,1.465,0.322   c0.029,0.008,0.059,0.019,0.088,0.027c0.508,0.143,1.018,0.313,1.524,0.51c0.034,0.013,0.067,0.024,0.101,0.037   c0.342,0.135,0.684,0.28,1.026,0.44c0.29,0.137,0.573,0.282,0.849,0.431c0.109,0.059,0.215,0.122,0.322,0.183   c0.153,0.087,0.305,0.173,0.454,0.263c0.139,0.085,0.274,0.173,0.409,0.261c0.11,0.071,0.219,0.142,0.326,0.215   c0.15,0.103,0.298,0.208,0.442,0.315c0.081,0.06,0.161,0.12,0.24,0.18c0.155,0.119,0.308,0.239,0.456,0.362   c0.058,0.048,0.114,0.097,0.171,0.145c0.159,0.135,0.315,0.272,0.464,0.411c0.032,0.03,0.062,0.06,0.094,0.09   c0.432,0.41,0.818,0.833,1.159,1.262c0.1,0.126,0.201,0.252,0.292,0.379c0.101,0.14,0.196,0.28,0.287,0.421   c0.02,0.031,0.043,0.062,0.062,0.093c0.083,0.133,0.156,0.266,0.23,0.4c0.037,0.068,0.077,0.137,0.112,0.205   c0.061,0.119,0.114,0.237,0.166,0.356c0.036,0.082,0.072,0.163,0.104,0.244c0.043,0.111,0.081,0.221,0.117,0.331   c0.028,0.088,0.054,0.175,0.077,0.261c0.028,0.104,0.053,0.208,0.073,0.311c0.018,0.091,0.031,0.181,0.043,0.27   c0.013,0.097,0.025,0.195,0.031,0.291c0.006,0.096,0.004,0.189,0.002,0.283c-0.001,0.086-0.001,0.173-0.008,0.258   c-0.033,0.355-0.118,0.696-0.268,1.015C20.585,36.992,19.143,37.78,17.107,37.971z M45.11,2.164   c1.703,0.651,2.588,3.169,2.293,6.382c-0.018,0.003-0.037,0.008-0.056,0.011c-1.149,0.169-2.331,0.507-3.509,0.996   c-0.02,0.008-0.04,0.017-0.06,0.026c-0.353,0.148-0.705,0.31-1.055,0.485c-0.035,0.017-0.07,0.03-0.104,0.048   c-0.006-0.046-0.018-0.088-0.024-0.134c-0.235-1.78-0.711-3.387-1.371-4.736c-0.009-0.018-0.017-0.036-0.026-0.053   c-0.23-0.463-0.479-0.896-0.75-1.293c0,0-0.001-0.001-0.001-0.001C42.084,2.304,43.788,1.66,45.11,2.164z M30.774,12.497   c0-5.149,2.29-9.5,5-9.5c0.929,0,1.816,0.526,2.578,1.427c0.008,0.011,0.011,0.024,0.02,0.035c0.512,0.609,0.956,1.373,1.318,2.244   c0.008,0.018,0.014,0.037,0.022,0.055c0.102,0.249,0.196,0.508,0.285,0.773c0.022,0.067,0.044,0.134,0.065,0.202   c0.077,0.242,0.147,0.491,0.212,0.744c0.015,0.057,0.031,0.112,0.045,0.17c0.075,0.311,0.143,0.628,0.2,0.952   c0.008,0.043,0.013,0.089,0.02,0.132c0.046,0.272,0.084,0.549,0.116,0.828c0.012,0.106,0.022,0.213,0.032,0.321   c0.011,0.112,0.016,0.226,0.025,0.339c-0.185,0.121-0.369,0.247-0.553,0.377c-0.154,0.109-0.299,0.226-0.448,0.338   c-0.143,0.108-0.291,0.214-0.43,0.324c0,0,0,0.001,0,0.001c-0.11,0.088-0.213,0.179-0.32,0.268   c-0.109,0.091-0.216,0.182-0.322,0.275c-0.321,0.28-0.632,0.566-0.927,0.861c-0.067,0.067-0.136,0.133-0.202,0.201   c-0.297,0.306-0.575,0.62-0.842,0.938c-0.112,0.133-0.218,0.267-0.324,0.402c-0.149,0.19-0.291,0.382-0.429,0.575   c-0.018,0.025-0.037,0.05-0.055,0.075c-0.022,0.031-0.043,0.063-0.065,0.094c-0.081,0.117-0.168,0.233-0.245,0.351   c-0.146,0.225-0.278,0.453-0.407,0.681c-0.008,0.014-0.017,0.028-0.025,0.042c-0.048,0.086-0.097,0.171-0.143,0.257   c-0.079,0.147-0.149,0.293-0.221,0.44c-0.018,0.038-0.041,0.076-0.059,0.114c-0.003,0.005-0.001,0.011-0.003,0.017   c-0.033,0.071-0.073,0.141-0.105,0.211c-0.049,0.111-0.084,0.219-0.129,0.329c-0.066,0.162-0.134,0.324-0.19,0.486   c-0.125,0.355-0.232,0.707-0.309,1.051c-0.01,0.044-0.013,0.087-0.022,0.131c-0.07,0.336-0.112,0.665-0.136,0.988   c-0.003,0.038-0.014,0.078-0.016,0.115C32.016,19.651,30.774,16.252,30.774,12.497z M52.591,16.545   c-0.911,2.043-2.652,4.049-4.904,5.648c-2.251,1.6-4.719,2.584-6.948,2.771c-2.04,0.172-3.597-0.348-4.389-1.463   c-0.194-0.273-0.337-0.578-0.434-0.909c-0.027-0.094-0.043-0.192-0.062-0.289c-0.015-0.075-0.034-0.147-0.045-0.224   c-0.014-0.103-0.017-0.21-0.023-0.316c-0.004-0.078-0.012-0.153-0.012-0.233c0-0.108,0.01-0.22,0.018-0.331   c0.006-0.082,0.009-0.163,0.019-0.247c0.014-0.115,0.036-0.233,0.057-0.35c0.015-0.083,0.029-0.166,0.048-0.25   c0.028-0.125,0.064-0.253,0.1-0.38c0.022-0.078,0.044-0.155,0.07-0.234c0.046-0.142,0.098-0.286,0.154-0.43   c0.023-0.059,0.046-0.118,0.071-0.178c0.065-0.156,0.134-0.313,0.21-0.47c0.067-0.142,0.146-0.286,0.222-0.429   c0.381-0.707,0.861-1.42,1.437-2.113c0.012-0.015,0.024-0.03,0.036-0.045c0.153-0.182,0.313-0.363,0.477-0.541   c0.03-0.032,0.06-0.065,0.09-0.098c0.154-0.164,0.313-0.326,0.476-0.486c0.055-0.053,0.11-0.107,0.166-0.16   c0.146-0.139,0.295-0.278,0.448-0.414c0.109-0.095,0.22-0.19,0.332-0.283c0.117-0.099,0.233-0.199,0.354-0.295   c0.164-0.131,0.336-0.257,0.508-0.384c0.083-0.061,0.162-0.126,0.247-0.186c0.317-0.225,0.637-0.434,0.958-0.632   c0.052-0.032,0.105-0.061,0.157-0.092c1.202-0.723,2.452-1.278,3.668-1.629c0.023-0.007,0.045-0.013,0.068-0.019   c0.229-0.065,0.457-0.122,0.683-0.172c0.043-0.01,0.086-0.018,0.128-0.027c0.212-0.045,0.423-0.085,0.631-0.116   c0.052-0.008,0.103-0.013,0.154-0.019c0.205-0.028,0.41-0.053,0.61-0.067c0.001,0,0.003-0.001,0.004-0.001   c0.214-0.015,0.425-0.027,0.628-0.027c1.675,0,2.954,0.521,3.647,1.496C53.446,13.034,53.424,14.677,52.591,16.545z" fill="#ffffff"/><path d="M43.018,41.514c3.7-2.581,6.142-6.948,6.151-11.896c0.001-0.407-0.245-0.773-0.621-0.928   c-0.193-0.078-0.4-0.092-0.597-0.05c-3.653,0.046-7.079,1.534-9.665,4.204c-2.596,2.679-4.035,6.235-4.072,10.024   c-0.001,0.006-0.004,0.012-0.004,0.018c-0.001,0.008,0.002,0.016,0.002,0.024c0,0.028-0.004,0.054-0.004,0.082   c0,0.054,0.016,0.104,0.024,0.156c0.004,0.022,0.005,0.045,0.01,0.067c0.031,0.128,0.082,0.247,0.16,0.351   c1.975,4.643,6.579,7.445,11.491,7.445c1.621,0,3.275-0.305,4.879-0.949c0.378-0.152,0.626-0.518,0.627-0.925   c0.001-0.204-0.062-0.398-0.17-0.561C49.745,45.043,46.691,42.484,43.018,41.514z M39.722,34.235   c2.009-2.074,4.606-3.314,7.4-3.554c-0.404,4.794-3.453,8.807-7.615,10.466c-0.007,0.003-0.015,0.001-0.022,0.004   c-0.981,0.388-1.989,0.633-3.008,0.745c-0.058,0.006-0.114,0.018-0.172,0.023c-0.018,0.002-0.035,0.001-0.053,0.003   C36.496,39.013,37.706,36.316,39.722,34.235z M36.783,43.882c0.538-0.061,1.065-0.163,1.583-0.286   c0.063-0.015,0.125-0.035,0.188-0.051c0.467-0.118,0.924-0.261,1.371-0.427c0.035-0.013,0.071-0.02,0.107-0.033   c3.851,0.106,7.26,2.209,8.979,5.473C44.237,49.966,39.166,48.002,36.783,43.882z" fill="#ffffff"/></g><path d="m28 .17c1.52.6 8 3.55 8 9.93 0 5.76-3.25 11.75-6.88 16.22-.18-.07-.12.89-.12-11.22 0-.5522847-.4477153-1-1-1s-1 .4477153-1 1v10.42c-1.2076095-1.8110726-2.5657522-3.5171139-4.06-5.1-1.8140891-3.1457447-2.8239366-6.6905154-2.94-10.32 0-6.36 6.48-9.32 8-9.93zm1 28.93c0 .5522847-.4477153 1-1 1s-1-.4477153-1-1 .4477153-1 1-1 1 .4477153 1 1zm-21.54 1.74c-6.05-2-6.87-9.05-7-10.68 1-1.26 5.84-6.51 11.91-4.54 5.49 1.79 10.16 6.69 13.3 11.57-.13.12.85.37-10.7-3.37-.5170805-.1475676-1.0582834.1401931-1.225095.65139-.1668117.511197.1004975 1.0627879.605095 1.24861l9.91 3.22c-2.1049175.5954577-4.155588 1.3682225-6.13 2.31-3.5367484.737118-7.200245.5963464-10.67-.41zm15.84 18.33c-3.73 5.15-10.71 3.74-12.3 3.34-.88-1.39-4.38-7.6-.64-12.74 3.36-4.62 9.57-7.61 15.11-9.07.09.14.55-.58-6.51 9.14-.2643322.4463148-.1435146 1.020651.2782316 1.3226421s1.0043876.2313663 1.3417684-.1626421l6.13-8.44c-.0865267 2.1742939.0104838 4.3520121.29 6.51-.3724405 3.6223855-1.6443116 7.0942498-3.7 10.1zm22.34-9.4c3.74 5.14.24 11.35-.64 12.74-1.59.4-8.57 1.81-12.3-3.34-3.41-4.69-4.28-11.44-4-17.17.17 0-.41-.77 6.69 9 .1853888.3399787.5503979.5423634.9369627.519513s.7251888-.2668279.8692333-.6262799c.1440444-.3594519.0676131-.769756-.196196-1.0532331l-6.1-8.44c2.0668956.7664364 4.1943239 1.3585037 6.36 1.77 3.2890614 1.4848516 6.1657316 3.7504869 8.38 6.6zm-14.64-10.48c0-.17-.75.14 10.64-3.57.5045975-.1858221.7719067-.737413.605095-1.24861-.1668116-.5111969-.7080145-.7989576-1.225095-.65139l-9.91 3.18c1.3466474-1.722478 2.5506348-3.5518701 3.6-5.47 2.4356328-2.6764732 5.4870741-4.7187765 8.89-5.95 6-2 10.87 3.28 11.91 4.54-.1 1.64-.9 8.71-7 10.68-5.45 1.83-12.11.59-17.51-1.51z" transform="matrix(1.0714285373687744 0 0 1.0714285373687744 174 152)" id="L1_20" fill="#ffffff"/><path d="m477.8 97.2c-.4-.1-.9-.2-1.4-.3-10.7-2.1-91.8-38.1-168.9 13-29.2 19.4-50.3 47.9-59.5 80.4-1.3 4.5 1.4 9.3 5.9 10.5 4.5 1.3 9.2-1.4 10.5-5.9 8.2-29 26.4-53.5 52.5-70.9 71.1-47.2 144.5-12.4 156.8-10.4 14 4.2 18.2 22.2 7.3 32.1-9.4 8.5-17.3 18.5-23.7 29.4l-31 53.7c-33.9 58.7-113 72.3-164.5 27.6-38.2-33.1-49.2-90.2-22.8-135.8l31-53.7c6.3-11 10.9-22.8 13.7-35.2 3.2-14.4 20.8-19.8 31.5-9.8 4.4 5.5 24.7 20.2 42.6 46.4 2.7 3.9 8 4.9 11.9 2.2s4.9-8 2.2-11.9c-1.5-2.2-3-4.3-4.5-6.3 21.2-17.9 48-12.2 53.8 13.1 1.1 4.6 5.6 7.5 10.2 6.4s7.5-5.6 6.4-10.2c-8.5-37.2-49.7-48.6-81.1-22.5-13.6-15.6-25.8-25.3-28.1-27.9-.3-.4-.6-.7-.9-1-20.2-20-54.4-9.8-60.5 17.9-2.3 10.7-6.3 20.9-11.8 30.3l-31 53.7c-29.1 50.4-19.1 112.8 20.6 151.9-9.2 24.2-22.4 45-39.3 61.9-34.2 34.2-72.6 41.5-108.3 57.2l-8.3-11.1c-27.2-38-18.5-91 19.4-118.2 5.7-4.1 13.7-2.8 17.8 2.9 15.2 21.1 19.8 47.6 12.6 72.7-1.3 4.5 1.3 9.3 5.9 10.5 4.5 1.3 9.3-1.3 10.5-5.9 8.6-30.1 3-61.9-15.2-87.3-9.6-13.4-28.3-16.5-41.7-6.8-45.4 32.7-55.9 96.5-23.1 142.1l6.5 9c-43 23.4-66.4 62.3-74 111.2-.8 5.2 3.2 9.8 8.4 9.8 4.1 0 7.8-3 8.4-7.2 4.3-27.3 13.8-50.3 28.4-68.5 12.8-15.9 27.5-25.9 43.3-33.6 1.1-.2 2.2-.7 3.2-1.4 3.9-2.8 36.5-14.6 48.3-19.3l5.2 12.2c22.2 51.8 82.3 75.5 133.6 53.5 15.2-6.5 22.2-24 15.7-39.2-12.1-28.3-36.1-49.4-65.8-57.9-4.5-1.3-9.3 1.3-10.5 5.9-1.3 4.5 1.3 9.3 5.9 10.5 24.7 7 44.7 24.6 54.8 48.2 2.8 6.5-.2 14-6.7 16.8-42.9 18.4-92.8-1.6-111.2-44.5l-5.2-12.2c43.5-20.1 75.6-52.3 95-99.3 60.2 44.1 145.2 26.3 182.5-38.3l31-53.7c5.5-9.5 12.3-18 20.4-25.4 21.1-19.2 12.7-53.9-14.7-61.4z" transform="matrix(0.1171875 0 0 0.1171875 56 269)" id="L1_21" fill="#ffffff"/><path d="m492.479 290.654-6.163-4.792c.812-6.164-.083-12.613-2.929-18.61l-10.298-21.701c-.779-1.642-1.01-3.453-.667-5.239l5.725-29.852c1.693-8.833-.781-17.737-6.79-24.43s-14.599-10.116-23.562-9.373l-30.142 2.477c-1.817.153-3.601-.278-5.155-1.237l-20.418-12.61c-3.955-2.443-8.236-3.951-12.581-4.596l-3.907-7.024c-6.674-11.999-19.07-19.822-32.352-20.418-19.088-.872-36.194 12.631-39.788 31.371-1.422 7.413-2.424 15.015-2.974 22.548-.18 2.268.653 4.476 2.287 6.059 1.411 1.367 3.354 2.14 5.313 2.14.271 0 .543-.015.813-.045 4.091-.454 7.045-4.118 6.635-8.203.525-6.605 1.419-13.218 2.657-19.673 2.236-11.666 12.493-19.728 24.385-19.212 8.12.364 15.751 5.24 19.914 12.725l.752 1.352c-6.251 2.251-11.884 6.375-15.965 12.188-15.586 22.198-24.452 48.3-25.777 75.134-2.631-9.527-4.487-19.281-5.537-29.217.025-.418.016-.843-.031-1.272-.449-4.118-4.149-7.103-8.27-6.643-1.961.214-3.825 1.229-5.07 2.759-1.25 1.536-1.863 3.576-1.667 5.547 2.256 22.728 8.396 44.678 18.25 65.241l6.04 12.608c.464 1.636 1.055 3.216 1.764 4.731-19.612 16.077-36.128 35.515-48.798 57.317v-11.61c0-3.814-.165-7.624-.457-11.422.015-1.073-.075-2.139-.272-3.189-1.925-19.561-7.677-38.707-16.937-56.077l-32.064-60.143c2.576-2.719 4.76-5.84 6.462-9.286l10.649-14.414c31.267-42.318 48.487-94.603 48.49-147.22.001-22.191-15.104-41.159-36.732-46.126-17.432-4.002-35.393 2.028-46.876 15.742l-7.778 9.29c-5.652-.38-11.463.423-17.075 2.56l-20.895 7.955c-7.655 2.914-15.871 3.294-23.762 1.098l-29.22-8.133c-10.434-2.904-21.359-.812-29.981 5.738-8.621 6.551-13.566 16.517-13.566 27.345v30.564c0 8.153-2.548 15.938-7.367 22.514l-13.259 18.088c-5.012 6.838-7.558 14.766-7.793 22.696l-9.961 5.077c-15.936 8.121-25.835 24.277-25.835 42.164 0 22.191 15.105 41.158 36.734 46.124 18.089 4.153 36.615 6.209 55.139 6.209 33.992 0 67.973-6.924 99.2-20.518l16.423-7.15c1.584-.454 3.129-1.005 4.624-1.653l31.207 58.535c5.14 9.642 9.078 19.893 11.752 30.463-5.188-2.748-10.495-4.698-15.873-5.82-9.406-1.963-19.619-1.524-30.356 1.298-6.982 1.835-11.942 6.725-13.268 13.079s1.266 12.819 6.931 17.293c8.715 6.882 17.902 11.366 27.307 13.327 3.852.804 7.839 1.205 11.941 1.205 5.621 0 11.463-.763 17.469-2.268v68.752c-7.262-6.173-15.008-10.847-23.137-13.935-11.516-4.372-24.562-5.865-38.783-4.443-8.561.856-15.292 5.634-18.006 12.778-2.714 7.146-.852 15.187 4.983 21.512 4.603 4.988 9.556 9.39 14.723 13.082 3.369 2.408 8.055 1.63 10.463-1.742 2.408-3.37 1.628-8.055-1.742-10.463-4.333-3.096-8.512-6.813-12.419-11.048-1.894-2.054-2.636-4.302-1.985-6.015.65-1.712 2.698-2.9 5.478-3.179 11.887-1.19 22.642 0 31.964 3.541 9.323 3.54 18.157 9.788 26.257 18.57 1.383 1.499 2.144 3.1 2.205 4.522v.279c-.01.424-.075.833-.219 1.212-.65 1.713-2.698 2.901-5.478 3.18-6.805.681-13.346.57-19.442-.331-4.097-.61-7.909 2.225-8.516 6.322s2.225 7.91 6.322 8.516c4.201.621 8.556.933 13.021.933 3.313 0 6.688-.171 10.108-.514 1.459-.146 2.86-.415 4.202-.781v39.092c0 4.143 3.357 7.5 7.5 7.5s7.5-3.357 7.5-7.5v-56.944c.022-.52.021-1.04 0-1.561v-20.648c.644.122 1.296.226 1.967.293 2.873.287 5.688.431 8.442.431 8.545 0 16.501-1.381 23.738-4.129 9.566-3.634 18.49-9.89 26.521-18.595 5.112-5.542 6.732-12.623 4.334-18.941-2.399-6.318-8.312-10.538-15.814-11.29-11.786-1.178-22.611.064-32.179 3.698-3.864 1.468-7.621 3.37-11.258 5.681 12.388-25.79 30.3-48.633 52.487-66.836 1.412 1.067 2.918 2.017 4.511 2.839l11.598 7.936c32.396 22.167 71.451 34.188 110.683 34.188 2.307 0 4.616-.041 6.923-.125 18.135-.657 33.187-13.563 36.604-31.383 2.756-14.363-2.704-28.862-14.251-37.839zm-432.848-147.809 13.259-18.088c6.719-9.165 10.27-20.017 10.27-31.381v-30.565c0-6.098 2.785-11.711 7.641-15.4s11.008-4.869 16.886-3.231l29.22 8.133c10.996 3.061 22.449 2.531 33.12-1.53l20.896-7.956c12.592-4.793 26.79 1.076 32.319 13.37 1.258 2.793 2.493 5.776 3.671 8.865 1.478 3.871 5.814 5.809 9.681 4.335 3.87-1.477 5.811-5.811 4.335-9.681-1.282-3.362-2.631-6.618-4.008-9.675-3.896-8.664-10.506-15.313-18.399-19.372l3.417-4.08c7.844-9.367 20.111-13.488 32.019-10.753 14.773 3.393 25.091 16.349 25.09 31.507-.002 40.099-10.65 79.991-30.35 114.847 4.95-22.983 5.411-46.968 1.249-70.096-.734-4.077-4.641-6.782-8.71-6.054-4.077.734-6.787 4.634-6.054 8.71 4.516 25.085 3.122 51.272-4.03 75.731l-2.488 8.51-25.689-55.059c-1.752-3.753-6.214-5.376-9.968-3.626-3.754 1.752-5.377 6.214-3.626 9.968l32.829 70.361c-2.705 6.756-8.353 11.731-15.227 13.608-.097.028-.195.052-.291.084-.812.21-1.646.362-2.488.484l-54.053-54.53c-2.915-2.941-7.664-2.963-10.606-.046-2.941 2.916-2.962 7.664-.046 10.606l44.113 44.503-11.588.183c-.867.014-1.728.021-2.595.021-38.455 0-75.827-13.44-105.49-37.993-10.385-8.594-12.276-23.84-4.309-34.71zm-15.596 92.574c-14.772-3.392-25.091-16.347-25.091-31.505 0-12.217 6.762-23.252 17.646-28.8l5.724-2.917c2.403 6.4 6.448 12.268 12.058 16.911 31.503 26.077 70.972 40.653 111.749 41.402-39.327 12.331-81.859 14.142-122.086 4.909zm216.273 103.878c-8.47 2.227-16.369 2.603-23.48 1.12-7.109-1.483-14.2-4.987-21.074-10.415-1.219-.963-1.653-1.929-1.543-2.458s.895-1.24 2.397-1.636c5.091-1.338 9.974-2.009 14.604-2.009 3.074 0 6.038.296 8.875.888 7.109 1.483 14.2 4.987 21.075 10.416.821.648 1.279 1.294 1.461 1.812.022.239.035.479.056.719-.162.52-.935 1.185-2.371 1.563zm40.201 50.92c5.523-2.099 11.694-3.152 18.416-3.152 2.253 0 4.57.119 6.943.356 1.695.17 2.954.817 3.285 1.689.331.873-.181 2.192-1.336 3.444-6.441 6.982-13.446 11.942-20.821 14.743-7.378 2.801-15.908 3.741-25.361 2.796-1.694-.17-2.954-.817-3.285-1.689-.331-.873.181-2.192 1.336-3.444 6.441-6.983 13.447-11.943 20.823-14.743zm59.036-207.101c3.554-5.061 9.243-7.799 15.039-7.799 3.295 0 6.624.885 9.614 2.731l20.417 12.61c.001 0 .001 0 .001.001 4.3 2.655 9.232 3.847 14.267 3.424l30.141-2.477c4.247-.351 8.322 1.271 11.172 4.444s4.022 7.396 3.219 11.584l-5.724 29.852c-.948 4.939-.31 9.952 1.848 14.496l10.298 21.7c4.157 8.763.754 19.281-7.747 23.947-26.701 14.653-57.827 19.307-87.646 13.101l-5.154-1.073 37.358-25.576c3.417-2.34 4.291-7.008 1.951-10.426-2.339-3.416-7.004-4.291-10.426-1.951l-48.939 33.505c-.296-.119-.591-.242-.878-.377-.058-.032-.119-.056-.178-.087-2.1-1.021-3.926-2.471-5.391-4.229-.027-.036-.05-.073-.077-.109-.068-.086-.144-.163-.215-.245-1.226-1.557-2.165-3.343-2.764-5.285-.042-.393-.114-.78-.216-1.158l35.139-48.598c2.427-3.356 1.673-8.045-1.684-10.473-3.356-2.424-8.044-1.674-10.473 1.684l-25.362 35.077-.25-2.623c-2.889-30.318 5.159-60.744 22.66-85.67zm132.454 142.553c-2.093 10.913-11.31 18.815-22.415 19.218-28.779 1.037-57.681-4.991-83.701-17.223 4.863.5 9.737.748 14.605.748 23.901-.002 47.612-5.993 68.817-17.632 4.694-2.576 8.527-6.138 11.385-10.29l2.58 2.006c7.073 5.497 10.417 14.376 8.729 23.173z" transform="matrix(0.11732980608940125 0 0 0.11732980608940125 221.0000053279648 235.00000240617783)" id="L1_27" fill="#ffffff"/><path d="m492.479 290.654-6.163-4.792c.812-6.164-.083-12.613-2.929-18.61l-10.298-21.701c-.779-1.642-1.01-3.453-.667-5.239l5.725-29.852c1.693-8.833-.781-17.737-6.79-24.43s-14.599-10.116-23.562-9.373l-30.142 2.477c-1.817.153-3.601-.278-5.155-1.237l-20.418-12.61c-3.955-2.443-8.236-3.951-12.581-4.596l-3.907-7.024c-6.674-11.999-19.07-19.822-32.352-20.418-19.088-.872-36.194 12.631-39.788 31.371-1.422 7.413-2.424 15.015-2.974 22.548-.18 2.268.653 4.476 2.287 6.059 1.411 1.367 3.354 2.14 5.313 2.14.271 0 .543-.015.813-.045 4.091-.454 7.045-4.118 6.635-8.203.525-6.605 1.419-13.218 2.657-19.673 2.236-11.666 12.493-19.728 24.385-19.212 8.12.364 15.751 5.24 19.914 12.725l.752 1.352c-6.251 2.251-11.884 6.375-15.965 12.188-15.586 22.198-24.452 48.3-25.777 75.134-2.631-9.527-4.487-19.281-5.537-29.217.025-.418.016-.843-.031-1.272-.449-4.118-4.149-7.103-8.27-6.643-1.961.214-3.825 1.229-5.07 2.759-1.25 1.536-1.863 3.576-1.667 5.547 2.256 22.728 8.396 44.678 18.25 65.241l6.04 12.608c.464 1.636 1.055 3.216 1.764 4.731-19.612 16.077-36.128 35.515-48.798 57.317v-11.61c0-3.814-.165-7.624-.457-11.422.015-1.073-.075-2.139-.272-3.189-1.925-19.561-7.677-38.707-16.937-56.077l-32.064-60.143c2.576-2.719 4.76-5.84 6.462-9.286l10.649-14.414c31.267-42.318 48.487-94.603 48.49-147.22.001-22.191-15.104-41.159-36.732-46.126-17.432-4.002-35.393 2.028-46.876 15.742l-7.778 9.29c-5.652-.38-11.463.423-17.075 2.56l-20.895 7.955c-7.655 2.914-15.871 3.294-23.762 1.098l-29.22-8.133c-10.434-2.904-21.359-.812-29.981 5.738-8.621 6.551-13.566 16.517-13.566 27.345v30.564c0 8.153-2.548 15.938-7.367 22.514l-13.259 18.088c-5.012 6.838-7.558 14.766-7.793 22.696l-9.961 5.077c-15.936 8.121-25.835 24.277-25.835 42.164 0 22.191 15.105 41.158 36.734 46.124 18.089 4.153 36.615 6.209 55.139 6.209 33.992 0 67.973-6.924 99.2-20.518l16.423-7.15c1.584-.454 3.129-1.005 4.624-1.653l31.207 58.535c5.14 9.642 9.078 19.893 11.752 30.463-5.188-2.748-10.495-4.698-15.873-5.82-9.406-1.963-19.619-1.524-30.356 1.298-6.982 1.835-11.942 6.725-13.268 13.079s1.266 12.819 6.931 17.293c8.715 6.882 17.902 11.366 27.307 13.327 3.852.804 7.839 1.205 11.941 1.205 5.621 0 11.463-.763 17.469-2.268v68.752c-7.262-6.173-15.008-10.847-23.137-13.935-11.516-4.372-24.562-5.865-38.783-4.443-8.561.856-15.292 5.634-18.006 12.778-2.714 7.146-.852 15.187 4.983 21.512 4.603 4.988 9.556 9.39 14.723 13.082 3.369 2.408 8.055 1.63 10.463-1.742 2.408-3.37 1.628-8.055-1.742-10.463-4.333-3.096-8.512-6.813-12.419-11.048-1.894-2.054-2.636-4.302-1.985-6.015.65-1.712 2.698-2.9 5.478-3.179 11.887-1.19 22.642 0 31.964 3.541 9.323 3.54 18.157 9.788 26.257 18.57 1.383 1.499 2.144 3.1 2.205 4.522v.279c-.01.424-.075.833-.219 1.212-.65 1.713-2.698 2.901-5.478 3.18-6.805.681-13.346.57-19.442-.331-4.097-.61-7.909 2.225-8.516 6.322s2.225 7.91 6.322 8.516c4.201.621 8.556.933 13.021.933 3.313 0 6.688-.171 10.108-.514 1.459-.146 2.86-.415 4.202-.781v39.092c0 4.143 3.357 7.5 7.5 7.5s7.5-3.357 7.5-7.5v-56.944c.022-.52.021-1.04 0-1.561v-20.648c.644.122 1.296.226 1.967.293 2.873.287 5.688.431 8.442.431 8.545 0 16.501-1.381 23.738-4.129 9.566-3.634 18.49-9.89 26.521-18.595 5.112-5.542 6.732-12.623 4.334-18.941-2.399-6.318-8.312-10.538-15.814-11.29-11.786-1.178-22.611.064-32.179 3.698-3.864 1.468-7.621 3.37-11.258 5.681 12.388-25.79 30.3-48.633 52.487-66.836 1.412 1.067 2.918 2.017 4.511 2.839l11.598 7.936c32.396 22.167 71.451 34.188 110.683 34.188 2.307 0 4.616-.041 6.923-.125 18.135-.657 33.187-13.563 36.604-31.383 2.756-14.363-2.704-28.862-14.251-37.839zm-432.848-147.809 13.259-18.088c6.719-9.165 10.27-20.017 10.27-31.381v-30.565c0-6.098 2.785-11.711 7.641-15.4s11.008-4.869 16.886-3.231l29.22 8.133c10.996 3.061 22.449 2.531 33.12-1.53l20.896-7.956c12.592-4.793 26.79 1.076 32.319 13.37 1.258 2.793 2.493 5.776 3.671 8.865 1.478 3.871 5.814 5.809 9.681 4.335 3.87-1.477 5.811-5.811 4.335-9.681-1.282-3.362-2.631-6.618-4.008-9.675-3.896-8.664-10.506-15.313-18.399-19.372l3.417-4.08c7.844-9.367 20.111-13.488 32.019-10.753 14.773 3.393 25.091 16.349 25.09 31.507-.002 40.099-10.65 79.991-30.35 114.847 4.95-22.983 5.411-46.968 1.249-70.096-.734-4.077-4.641-6.782-8.71-6.054-4.077.734-6.787 4.634-6.054 8.71 4.516 25.085 3.122 51.272-4.03 75.731l-2.488 8.51-25.689-55.059c-1.752-3.753-6.214-5.376-9.968-3.626-3.754 1.752-5.377 6.214-3.626 9.968l32.829 70.361c-2.705 6.756-8.353 11.731-15.227 13.608-.097.028-.195.052-.291.084-.812.21-1.646.362-2.488.484l-54.053-54.53c-2.915-2.941-7.664-2.963-10.606-.046-2.941 2.916-2.962 7.664-.046 10.606l44.113 44.503-11.588.183c-.867.014-1.728.021-2.595.021-38.455 0-75.827-13.44-105.49-37.993-10.385-8.594-12.276-23.84-4.309-34.71zm-15.596 92.574c-14.772-3.392-25.091-16.347-25.091-31.505 0-12.217 6.762-23.252 17.646-28.8l5.724-2.917c2.403 6.4 6.448 12.268 12.058 16.911 31.503 26.077 70.972 40.653 111.749 41.402-39.327 12.331-81.859 14.142-122.086 4.909zm216.273 103.878c-8.47 2.227-16.369 2.603-23.48 1.12-7.109-1.483-14.2-4.987-21.074-10.415-1.219-.963-1.653-1.929-1.543-2.458s.895-1.24 2.397-1.636c5.091-1.338 9.974-2.009 14.604-2.009 3.074 0 6.038.296 8.875.888 7.109 1.483 14.2 4.987 21.075 10.416.821.648 1.279 1.294 1.461 1.812.022.239.035.479.056.719-.162.52-.935 1.185-2.371 1.563zm40.201 50.92c5.523-2.099 11.694-3.152 18.416-3.152 2.253 0 4.57.119 6.943.356 1.695.17 2.954.817 3.285 1.689.331.873-.181 2.192-1.336 3.444-6.441 6.982-13.446 11.942-20.821 14.743-7.378 2.801-15.908 3.741-25.361 2.796-1.694-.17-2.954-.817-3.285-1.689-.331-.873.181-2.192 1.336-3.444 6.441-6.983 13.447-11.943 20.823-14.743zm59.036-207.101c3.554-5.061 9.243-7.799 15.039-7.799 3.295 0 6.624.885 9.614 2.731l20.417 12.61c.001 0 .001 0 .001.001 4.3 2.655 9.232 3.847 14.267 3.424l30.141-2.477c4.247-.351 8.322 1.271 11.172 4.444s4.022 7.396 3.219 11.584l-5.724 29.852c-.948 4.939-.31 9.952 1.848 14.496l10.298 21.7c4.157 8.763.754 19.281-7.747 23.947-26.701 14.653-57.827 19.307-87.646 13.101l-5.154-1.073 37.358-25.576c3.417-2.34 4.291-7.008 1.951-10.426-2.339-3.416-7.004-4.291-10.426-1.951l-48.939 33.505c-.296-.119-.591-.242-.878-.377-.058-.032-.119-.056-.178-.087-2.1-1.021-3.926-2.471-5.391-4.229-.027-.036-.05-.073-.077-.109-.068-.086-.144-.163-.215-.245-1.226-1.557-2.165-3.343-2.764-5.285-.042-.393-.114-.78-.216-1.158l35.139-48.598c2.427-3.356 1.673-8.045-1.684-10.473-3.356-2.424-8.044-1.674-10.473 1.684l-25.362 35.077-.25-2.623c-2.889-30.318 5.159-60.744 22.66-85.67zm132.454 142.553c-2.093 10.913-11.31 18.815-22.415 19.218-28.779 1.037-57.681-4.991-83.701-17.223 4.863.5 9.737.748 14.605.748 23.901-.002 47.612-5.993 68.817-17.632 4.694-2.576 8.527-6.138 11.385-10.29l2.58 2.006c7.073 5.497 10.417 14.376 8.729 23.173z" transform="matrix(0.11732980608940125 0 0 0.11732980608940125 -26.999998224011733 42.00000080205922)" id="L1_28" fill="#ffffff"/><path d="m492.479 290.654-6.163-4.792c.812-6.164-.083-12.613-2.929-18.61l-10.298-21.701c-.779-1.642-1.01-3.453-.667-5.239l5.725-29.852c1.693-8.833-.781-17.737-6.79-24.43s-14.599-10.116-23.562-9.373l-30.142 2.477c-1.817.153-3.601-.278-5.155-1.237l-20.418-12.61c-3.955-2.443-8.236-3.951-12.581-4.596l-3.907-7.024c-6.674-11.999-19.07-19.822-32.352-20.418-19.088-.872-36.194 12.631-39.788 31.371-1.422 7.413-2.424 15.015-2.974 22.548-.18 2.268.653 4.476 2.287 6.059 1.411 1.367 3.354 2.14 5.313 2.14.271 0 .543-.015.813-.045 4.091-.454 7.045-4.118 6.635-8.203.525-6.605 1.419-13.218 2.657-19.673 2.236-11.666 12.493-19.728 24.385-19.212 8.12.364 15.751 5.24 19.914 12.725l.752 1.352c-6.251 2.251-11.884 6.375-15.965 12.188-15.586 22.198-24.452 48.3-25.777 75.134-2.631-9.527-4.487-19.281-5.537-29.217.025-.418.016-.843-.031-1.272-.449-4.118-4.149-7.103-8.27-6.643-1.961.214-3.825 1.229-5.07 2.759-1.25 1.536-1.863 3.576-1.667 5.547 2.256 22.728 8.396 44.678 18.25 65.241l6.04 12.608c.464 1.636 1.055 3.216 1.764 4.731-19.612 16.077-36.128 35.515-48.798 57.317v-11.61c0-3.814-.165-7.624-.457-11.422.015-1.073-.075-2.139-.272-3.189-1.925-19.561-7.677-38.707-16.937-56.077l-32.064-60.143c2.576-2.719 4.76-5.84 6.462-9.286l10.649-14.414c31.267-42.318 48.487-94.603 48.49-147.22.001-22.191-15.104-41.159-36.732-46.126-17.432-4.002-35.393 2.028-46.876 15.742l-7.778 9.29c-5.652-.38-11.463.423-17.075 2.56l-20.895 7.955c-7.655 2.914-15.871 3.294-23.762 1.098l-29.22-8.133c-10.434-2.904-21.359-.812-29.981 5.738-8.621 6.551-13.566 16.517-13.566 27.345v30.564c0 8.153-2.548 15.938-7.367 22.514l-13.259 18.088c-5.012 6.838-7.558 14.766-7.793 22.696l-9.961 5.077c-15.936 8.121-25.835 24.277-25.835 42.164 0 22.191 15.105 41.158 36.734 46.124 18.089 4.153 36.615 6.209 55.139 6.209 33.992 0 67.973-6.924 99.2-20.518l16.423-7.15c1.584-.454 3.129-1.005 4.624-1.653l31.207 58.535c5.14 9.642 9.078 19.893 11.752 30.463-5.188-2.748-10.495-4.698-15.873-5.82-9.406-1.963-19.619-1.524-30.356 1.298-6.982 1.835-11.942 6.725-13.268 13.079s1.266 12.819 6.931 17.293c8.715 6.882 17.902 11.366 27.307 13.327 3.852.804 7.839 1.205 11.941 1.205 5.621 0 11.463-.763 17.469-2.268v68.752c-7.262-6.173-15.008-10.847-23.137-13.935-11.516-4.372-24.562-5.865-38.783-4.443-8.561.856-15.292 5.634-18.006 12.778-2.714 7.146-.852 15.187 4.983 21.512 4.603 4.988 9.556 9.39 14.723 13.082 3.369 2.408 8.055 1.63 10.463-1.742 2.408-3.37 1.628-8.055-1.742-10.463-4.333-3.096-8.512-6.813-12.419-11.048-1.894-2.054-2.636-4.302-1.985-6.015.65-1.712 2.698-2.9 5.478-3.179 11.887-1.19 22.642 0 31.964 3.541 9.323 3.54 18.157 9.788 26.257 18.57 1.383 1.499 2.144 3.1 2.205 4.522v.279c-.01.424-.075.833-.219 1.212-.65 1.713-2.698 2.901-5.478 3.18-6.805.681-13.346.57-19.442-.331-4.097-.61-7.909 2.225-8.516 6.322s2.225 7.91 6.322 8.516c4.201.621 8.556.933 13.021.933 3.313 0 6.688-.171 10.108-.514 1.459-.146 2.86-.415 4.202-.781v39.092c0 4.143 3.357 7.5 7.5 7.5s7.5-3.357 7.5-7.5v-56.944c.022-.52.021-1.04 0-1.561v-20.648c.644.122 1.296.226 1.967.293 2.873.287 5.688.431 8.442.431 8.545 0 16.501-1.381 23.738-4.129 9.566-3.634 18.49-9.89 26.521-18.595 5.112-5.542 6.732-12.623 4.334-18.941-2.399-6.318-8.312-10.538-15.814-11.29-11.786-1.178-22.611.064-32.179 3.698-3.864 1.468-7.621 3.37-11.258 5.681 12.388-25.79 30.3-48.633 52.487-66.836 1.412 1.067 2.918 2.017 4.511 2.839l11.598 7.936c32.396 22.167 71.451 34.188 110.683 34.188 2.307 0 4.616-.041 6.923-.125 18.135-.657 33.187-13.563 36.604-31.383 2.756-14.363-2.704-28.862-14.251-37.839zm-432.848-147.809 13.259-18.088c6.719-9.165 10.27-20.017 10.27-31.381v-30.565c0-6.098 2.785-11.711 7.641-15.4s11.008-4.869 16.886-3.231l29.22 8.133c10.996 3.061 22.449 2.531 33.12-1.53l20.896-7.956c12.592-4.793 26.79 1.076 32.319 13.37 1.258 2.793 2.493 5.776 3.671 8.865 1.478 3.871 5.814 5.809 9.681 4.335 3.87-1.477 5.811-5.811 4.335-9.681-1.282-3.362-2.631-6.618-4.008-9.675-3.896-8.664-10.506-15.313-18.399-19.372l3.417-4.08c7.844-9.367 20.111-13.488 32.019-10.753 14.773 3.393 25.091 16.349 25.09 31.507-.002 40.099-10.65 79.991-30.35 114.847 4.95-22.983 5.411-46.968 1.249-70.096-.734-4.077-4.641-6.782-8.71-6.054-4.077.734-6.787 4.634-6.054 8.71 4.516 25.085 3.122 51.272-4.03 75.731l-2.488 8.51-25.689-55.059c-1.752-3.753-6.214-5.376-9.968-3.626-3.754 1.752-5.377 6.214-3.626 9.968l32.829 70.361c-2.705 6.756-8.353 11.731-15.227 13.608-.097.028-.195.052-.291.084-.812.21-1.646.362-2.488.484l-54.053-54.53c-2.915-2.941-7.664-2.963-10.606-.046-2.941 2.916-2.962 7.664-.046 10.606l44.113 44.503-11.588.183c-.867.014-1.728.021-2.595.021-38.455 0-75.827-13.44-105.49-37.993-10.385-8.594-12.276-23.84-4.309-34.71zm-15.596 92.574c-14.772-3.392-25.091-16.347-25.091-31.505 0-12.217 6.762-23.252 17.646-28.8l5.724-2.917c2.403 6.4 6.448 12.268 12.058 16.911 31.503 26.077 70.972 40.653 111.749 41.402-39.327 12.331-81.859 14.142-122.086 4.909zm216.273 103.878c-8.47 2.227-16.369 2.603-23.48 1.12-7.109-1.483-14.2-4.987-21.074-10.415-1.219-.963-1.653-1.929-1.543-2.458s.895-1.24 2.397-1.636c5.091-1.338 9.974-2.009 14.604-2.009 3.074 0 6.038.296 8.875.888 7.109 1.483 14.2 4.987 21.075 10.416.821.648 1.279 1.294 1.461 1.812.022.239.035.479.056.719-.162.52-.935 1.185-2.371 1.563zm40.201 50.92c5.523-2.099 11.694-3.152 18.416-3.152 2.253 0 4.57.119 6.943.356 1.695.17 2.954.817 3.285 1.689.331.873-.181 2.192-1.336 3.444-6.441 6.982-13.446 11.942-20.821 14.743-7.378 2.801-15.908 3.741-25.361 2.796-1.694-.17-2.954-.817-3.285-1.689-.331-.873.181-2.192 1.336-3.444 6.441-6.983 13.447-11.943 20.823-14.743zm59.036-207.101c3.554-5.061 9.243-7.799 15.039-7.799 3.295 0 6.624.885 9.614 2.731l20.417 12.61c.001 0 .001 0 .001.001 4.3 2.655 9.232 3.847 14.267 3.424l30.141-2.477c4.247-.351 8.322 1.271 11.172 4.444s4.022 7.396 3.219 11.584l-5.724 29.852c-.948 4.939-.31 9.952 1.848 14.496l10.298 21.7c4.157 8.763.754 19.281-7.747 23.947-26.701 14.653-57.827 19.307-87.646 13.101l-5.154-1.073 37.358-25.576c3.417-2.34 4.291-7.008 1.951-10.426-2.339-3.416-7.004-4.291-10.426-1.951l-48.939 33.505c-.296-.119-.591-.242-.878-.377-.058-.032-.119-.056-.178-.087-2.1-1.021-3.926-2.471-5.391-4.229-.027-.036-.05-.073-.077-.109-.068-.086-.144-.163-.215-.245-1.226-1.557-2.165-3.343-2.764-5.285-.042-.393-.114-.78-.216-1.158l35.139-48.598c2.427-3.356 1.673-8.045-1.684-10.473-3.356-2.424-8.044-1.674-10.473 1.684l-25.362 35.077-.25-2.623c-2.889-30.318 5.159-60.744 22.66-85.67zm132.454 142.553c-2.093 10.913-11.31 18.815-22.415 19.218-28.779 1.037-57.681-4.991-83.701-17.223 4.863.5 9.737.748 14.605.748 23.901-.002 47.612-5.993 68.817-17.632 4.694-2.576 8.527-6.138 11.385-10.29l2.58 2.006c7.073 5.497 10.417 14.376 8.729 23.173z" transform="matrix(0.11732980608940125 0 0 0.11732980608940125 146.00000355197653 -13.999998395881505)" id="L1_30" fill="#ffffff"/><path d="m492.479 290.654-6.163-4.792c.812-6.164-.083-12.613-2.929-18.61l-10.298-21.701c-.779-1.642-1.01-3.453-.667-5.239l5.725-29.852c1.693-8.833-.781-17.737-6.79-24.43s-14.599-10.116-23.562-9.373l-30.142 2.477c-1.817.153-3.601-.278-5.155-1.237l-20.418-12.61c-3.955-2.443-8.236-3.951-12.581-4.596l-3.907-7.024c-6.674-11.999-19.07-19.822-32.352-20.418-19.088-.872-36.194 12.631-39.788 31.371-1.422 7.413-2.424 15.015-2.974 22.548-.18 2.268.653 4.476 2.287 6.059 1.411 1.367 3.354 2.14 5.313 2.14.271 0 .543-.015.813-.045 4.091-.454 7.045-4.118 6.635-8.203.525-6.605 1.419-13.218 2.657-19.673 2.236-11.666 12.493-19.728 24.385-19.212 8.12.364 15.751 5.24 19.914 12.725l.752 1.352c-6.251 2.251-11.884 6.375-15.965 12.188-15.586 22.198-24.452 48.3-25.777 75.134-2.631-9.527-4.487-19.281-5.537-29.217.025-.418.016-.843-.031-1.272-.449-4.118-4.149-7.103-8.27-6.643-1.961.214-3.825 1.229-5.07 2.759-1.25 1.536-1.863 3.576-1.667 5.547 2.256 22.728 8.396 44.678 18.25 65.241l6.04 12.608c.464 1.636 1.055 3.216 1.764 4.731-19.612 16.077-36.128 35.515-48.798 57.317v-11.61c0-3.814-.165-7.624-.457-11.422.015-1.073-.075-2.139-.272-3.189-1.925-19.561-7.677-38.707-16.937-56.077l-32.064-60.143c2.576-2.719 4.76-5.84 6.462-9.286l10.649-14.414c31.267-42.318 48.487-94.603 48.49-147.22.001-22.191-15.104-41.159-36.732-46.126-17.432-4.002-35.393 2.028-46.876 15.742l-7.778 9.29c-5.652-.38-11.463.423-17.075 2.56l-20.895 7.955c-7.655 2.914-15.871 3.294-23.762 1.098l-29.22-8.133c-10.434-2.904-21.359-.812-29.981 5.738-8.621 6.551-13.566 16.517-13.566 27.345v30.564c0 8.153-2.548 15.938-7.367 22.514l-13.259 18.088c-5.012 6.838-7.558 14.766-7.793 22.696l-9.961 5.077c-15.936 8.121-25.835 24.277-25.835 42.164 0 22.191 15.105 41.158 36.734 46.124 18.089 4.153 36.615 6.209 55.139 6.209 33.992 0 67.973-6.924 99.2-20.518l16.423-7.15c1.584-.454 3.129-1.005 4.624-1.653l31.207 58.535c5.14 9.642 9.078 19.893 11.752 30.463-5.188-2.748-10.495-4.698-15.873-5.82-9.406-1.963-19.619-1.524-30.356 1.298-6.982 1.835-11.942 6.725-13.268 13.079s1.266 12.819 6.931 17.293c8.715 6.882 17.902 11.366 27.307 13.327 3.852.804 7.839 1.205 11.941 1.205 5.621 0 11.463-.763 17.469-2.268v68.752c-7.262-6.173-15.008-10.847-23.137-13.935-11.516-4.372-24.562-5.865-38.783-4.443-8.561.856-15.292 5.634-18.006 12.778-2.714 7.146-.852 15.187 4.983 21.512 4.603 4.988 9.556 9.39 14.723 13.082 3.369 2.408 8.055 1.63 10.463-1.742 2.408-3.37 1.628-8.055-1.742-10.463-4.333-3.096-8.512-6.813-12.419-11.048-1.894-2.054-2.636-4.302-1.985-6.015.65-1.712 2.698-2.9 5.478-3.179 11.887-1.19 22.642 0 31.964 3.541 9.323 3.54 18.157 9.788 26.257 18.57 1.383 1.499 2.144 3.1 2.205 4.522v.279c-.01.424-.075.833-.219 1.212-.65 1.713-2.698 2.901-5.478 3.18-6.805.681-13.346.57-19.442-.331-4.097-.61-7.909 2.225-8.516 6.322s2.225 7.91 6.322 8.516c4.201.621 8.556.933 13.021.933 3.313 0 6.688-.171 10.108-.514 1.459-.146 2.86-.415 4.202-.781v39.092c0 4.143 3.357 7.5 7.5 7.5s7.5-3.357 7.5-7.5v-56.944c.022-.52.021-1.04 0-1.561v-20.648c.644.122 1.296.226 1.967.293 2.873.287 5.688.431 8.442.431 8.545 0 16.501-1.381 23.738-4.129 9.566-3.634 18.49-9.89 26.521-18.595 5.112-5.542 6.732-12.623 4.334-18.941-2.399-6.318-8.312-10.538-15.814-11.29-11.786-1.178-22.611.064-32.179 3.698-3.864 1.468-7.621 3.37-11.258 5.681 12.388-25.79 30.3-48.633 52.487-66.836 1.412 1.067 2.918 2.017 4.511 2.839l11.598 7.936c32.396 22.167 71.451 34.188 110.683 34.188 2.307 0 4.616-.041 6.923-.125 18.135-.657 33.187-13.563 36.604-31.383 2.756-14.363-2.704-28.862-14.251-37.839zm-432.848-147.809 13.259-18.088c6.719-9.165 10.27-20.017 10.27-31.381v-30.565c0-6.098 2.785-11.711 7.641-15.4s11.008-4.869 16.886-3.231l29.22 8.133c10.996 3.061 22.449 2.531 33.12-1.53l20.896-7.956c12.592-4.793 26.79 1.076 32.319 13.37 1.258 2.793 2.493 5.776 3.671 8.865 1.478 3.871 5.814 5.809 9.681 4.335 3.87-1.477 5.811-5.811 4.335-9.681-1.282-3.362-2.631-6.618-4.008-9.675-3.896-8.664-10.506-15.313-18.399-19.372l3.417-4.08c7.844-9.367 20.111-13.488 32.019-10.753 14.773 3.393 25.091 16.349 25.09 31.507-.002 40.099-10.65 79.991-30.35 114.847 4.95-22.983 5.411-46.968 1.249-70.096-.734-4.077-4.641-6.782-8.71-6.054-4.077.734-6.787 4.634-6.054 8.71 4.516 25.085 3.122 51.272-4.03 75.731l-2.488 8.51-25.689-55.059c-1.752-3.753-6.214-5.376-9.968-3.626-3.754 1.752-5.377 6.214-3.626 9.968l32.829 70.361c-2.705 6.756-8.353 11.731-15.227 13.608-.097.028-.195.052-.291.084-.812.21-1.646.362-2.488.484l-54.053-54.53c-2.915-2.941-7.664-2.963-10.606-.046-2.941 2.916-2.962 7.664-.046 10.606l44.113 44.503-11.588.183c-.867.014-1.728.021-2.595.021-38.455 0-75.827-13.44-105.49-37.993-10.385-8.594-12.276-23.84-4.309-34.71zm-15.596 92.574c-14.772-3.392-25.091-16.347-25.091-31.505 0-12.217 6.762-23.252 17.646-28.8l5.724-2.917c2.403 6.4 6.448 12.268 12.058 16.911 31.503 26.077 70.972 40.653 111.749 41.402-39.327 12.331-81.859 14.142-122.086 4.909zm216.273 103.878c-8.47 2.227-16.369 2.603-23.48 1.12-7.109-1.483-14.2-4.987-21.074-10.415-1.219-.963-1.653-1.929-1.543-2.458s.895-1.24 2.397-1.636c5.091-1.338 9.974-2.009 14.604-2.009 3.074 0 6.038.296 8.875.888 7.109 1.483 14.2 4.987 21.075 10.416.821.648 1.279 1.294 1.461 1.812.022.239.035.479.056.719-.162.52-.935 1.185-2.371 1.563zm40.201 50.92c5.523-2.099 11.694-3.152 18.416-3.152 2.253 0 4.57.119 6.943.356 1.695.17 2.954.817 3.285 1.689.331.873-.181 2.192-1.336 3.444-6.441 6.982-13.446 11.942-20.821 14.743-7.378 2.801-15.908 3.741-25.361 2.796-1.694-.17-2.954-.817-3.285-1.689-.331-.873.181-2.192 1.336-3.444 6.441-6.983 13.447-11.943 20.823-14.743zm59.036-207.101c3.554-5.061 9.243-7.799 15.039-7.799 3.295 0 6.624.885 9.614 2.731l20.417 12.61c.001 0 .001 0 .001.001 4.3 2.655 9.232 3.847 14.267 3.424l30.141-2.477c4.247-.351 8.322 1.271 11.172 4.444s4.022 7.396 3.219 11.584l-5.724 29.852c-.948 4.939-.31 9.952 1.848 14.496l10.298 21.7c4.157 8.763.754 19.281-7.747 23.947-26.701 14.653-57.827 19.307-87.646 13.101l-5.154-1.073 37.358-25.576c3.417-2.34 4.291-7.008 1.951-10.426-2.339-3.416-7.004-4.291-10.426-1.951l-48.939 33.505c-.296-.119-.591-.242-.878-.377-.058-.032-.119-.056-.178-.087-2.1-1.021-3.926-2.471-5.391-4.229-.027-.036-.05-.073-.077-.109-.068-.086-.144-.163-.215-.245-1.226-1.557-2.165-3.343-2.764-5.285-.042-.393-.114-.78-.216-1.158l35.139-48.598c2.427-3.356 1.673-8.045-1.684-10.473-3.356-2.424-8.044-1.674-10.473 1.684l-25.362 35.077-.25-2.623c-2.889-30.318 5.159-60.744 22.66-85.67zm132.454 142.553c-2.093 10.913-11.31 18.815-22.415 19.218-28.779 1.037-57.681-4.991-83.701-17.223 4.863.5 9.737.748 14.605.748 23.901-.002 47.612-5.993 68.817-17.632 4.694-2.576 8.527-6.138 11.385-10.29l2.58 2.006c7.073 5.497 10.417 14.376 8.729 23.173z" transform="matrix(0.11732980608940125 0 0 0.11732980608940125 226 318)" id="L1_32" fill="#ffffff"/><g transform="matrix(0.1171875 0 0 0.1171875 78.99999919891354 91.99999981403352)" id="L1_34"><path d="m437.019 74.981c-48.352-48.353-112.639-74.981-181.019-74.981-35.576 0-70.013 7.161-102.356 21.284-31.237 13.641-59.069 33.103-82.722 57.847-2.862 2.995-2.755 7.741.239 10.603s7.741 2.755 10.603-.239c22.273-23.3 48.476-41.625 77.882-54.466 30.438-13.291 62.856-20.03 96.354-20.03 64.374 0 124.895 25.069 170.414 70.588s70.587 106.04 70.587 170.413c0 64.374-25.068 124.895-70.587 170.414s-106.04 70.587-170.414 70.587-124.894-25.068-170.413-70.587c-45.52-45.519-70.588-106.04-70.588-170.414 0-50.623 15.517-99.064 44.873-140.088 2.41-3.368 1.634-8.053-1.734-10.463-3.369-2.41-8.053-1.633-10.463 1.734-31.189 43.585-47.675 95.045-47.675 148.817 0 68.38 26.628 132.668 74.981 181.02 48.352 48.351 112.639 74.98 181.019 74.98s132.668-26.629 181.02-74.981c48.351-48.352 74.98-112.639 74.98-181.019s-26.629-132.667-74.981-181.019z" fill="#ffffff"/><path d="m203.855 248.413c-4.371-.254-8.807.175-13.116 1.242.028-4.462-.599-8.896-1.884-13.108-4.844-15.87-20.807-26.532-39.724-26.532-19.002 0-34.459 10.416-39.378 26.533-1.285 4.212-1.912 8.646-1.884 13.107-4.309-1.066-8.745-1.495-13.116-1.242-16.564.968-30.688 13.971-35.144 32.354-4.477 18.468 2.003 35.944 16.508 44.521 1.005.595 2.035 1.147 3.089 1.658-1.245 2.052-2.315 4.19-3.189 6.382-6.243 15.652-.697 33.446 14.13 45.332 8.389 6.725 18.187 10.165 27.6 10.165 7.148 0 14.074-1.984 19.99-6.022 3.862-2.636 7.287-5.911 10.149-9.656 2.862 3.745 6.287 7.021 10.149 9.656 13.704 9.352 32.828 7.688 47.589-4.143 14.827-11.886 20.373-29.679 14.13-45.333-.732-1.834-1.603-3.633-2.599-5.376 1.853-.77 3.639-1.661 5.335-2.663 14.506-8.577 20.986-26.053 16.508-44.521-4.455-18.383-18.579-31.385-35.143-32.354zm11.001 63.965c-3.344 1.977-7.26 3.292-11.326 3.803-2.845.358-5.238 2.307-6.163 5.022s-.221 5.719 1.813 7.74c2.901 2.881 5.198 6.319 6.643 9.941 2.843 7.128 2.04 18.758-9.58 28.073-7.387 5.92-19.611 10.38-29.752 3.457-5.31-3.624-9.387-9.118-11.482-15.471-1.014-3.074-3.885-5.151-7.122-5.151s-6.108 2.077-7.122 5.151c-2.096 6.354-6.173 11.848-11.482 15.471-10.145 6.921-22.368 2.462-29.753-3.457-11.62-9.315-12.423-20.944-9.58-28.073 1.502-3.766 3.908-7.312 6.958-10.257 2.015-1.945 2.779-4.85 1.98-7.534s-3.026-4.7-5.776-5.227c-3.398-.652-6.547-1.826-9.36-3.489-6.605-3.906-13.075-13.604-9.566-28.077 2.23-9.201 9.184-20.198 21.442-20.914 6.093-.359 12.408 1.325 17.783 4.736 2.688 1.705 6.159 1.528 8.659-.441 2.5-1.97 3.485-5.303 2.456-8.315-2.062-6.039-2.214-12.587-.428-18.441 2.24-7.34 10.14-15.912 25.033-15.912 9.467 0 21.793 4.167 25.378 15.911 1.786 5.854 1.635 12.404-.427 18.443-1.028 3.012-.043 6.345 2.457 8.314s5.97 2.146 8.658.441c5.375-3.41 11.688-5.093 17.783-4.736 12.258.716 19.212 11.714 21.442 20.914 3.509 14.474-2.96 24.172-9.566 28.078z" fill="#ffffff"/><path d="m277.493 169.865c-19.819 1.159-36.087 16.186-41.443 38.284-5.297 21.849 2.323 42.497 19.411 52.602 1.723 1.019 3.51 1.935 5.354 2.747-1.906 2.906-3.513 5.975-4.775 9.138-7.355 18.44-.772 39.441 16.77 53.503 10.081 8.081 21.554 12.203 32.592 12.202 8.388-.001 16.526-2.381 23.606-7.213 5.188-3.54 9.71-8.055 13.35-13.253 3.64 5.198 8.162 9.713 13.349 13.253 16.342 11.152 38.35 9.236 56.069-4.885 3.239-2.581 3.772-7.3 1.191-10.539-2.581-3.24-7.3-3.772-10.539-1.191-9.46 7.541-25.159 13.171-38.266 4.226-6.792-4.635-12.006-11.657-14.682-19.771-1.014-3.074-3.885-5.151-7.122-5.151s-6.108 2.077-7.122 5.151c-2.676 8.114-7.89 15.136-14.682 19.771-13.154 8.977-28.886 3.293-38.362-4.303-14.919-11.959-15.906-26.998-12.219-36.243 1.923-4.821 5.001-9.359 8.899-13.123 2.015-1.945 2.779-4.85 1.98-7.534s-3.026-4.7-5.776-5.227c-4.345-.833-8.375-2.337-11.979-4.468-8.567-5.067-16.973-17.576-12.469-36.158 2.861-11.802 11.843-25.915 27.742-26.844 7.799-.459 15.869 1.692 22.734 6.047 2.688 1.705 6.159 1.528 8.659-.441s3.485-5.302 2.456-8.314c-2.634-7.713-2.825-16.085-.54-23.573 2.905-9.52 13.082-20.637 32.203-20.637 12.144 0 27.975 5.404 32.624 20.636 2.286 7.49 2.095 15.862-.539 23.574-1.028 3.012-.044 6.345 2.456 8.315 2.499 1.969 5.97 2.146 8.659.441 6.865-4.356 14.935-6.501 22.734-6.047 15.898.929 24.88 15.041 27.742 26.844 4.504 18.583-3.902 31.092-12.47 36.158-4.282 2.532-9.292 4.216-14.489 4.87-2.845.358-5.237 2.307-6.163 5.022s-.221 5.719 1.813 7.74c3.708 3.682 6.645 8.081 8.495 12.721 1.521 3.813 2.141 7.783 1.843 11.798-.307 4.131 2.793 7.727 6.923 8.035 4.135.302 7.727-2.793 8.035-6.923.469-6.306-.497-12.519-2.869-18.466-1.1-2.758-2.467-5.45-4.067-8.025 2.84-1.059 5.563-2.352 8.113-3.86 17.089-10.105 24.708-30.753 19.412-52.602-5.357-22.098-21.624-37.125-41.443-38.284-5.901-.345-11.899.365-17.666 2.044.283-6.026-.439-12.051-2.173-17.733-5.795-18.988-24.232-31.256-46.97-31.256-22.483 0-40.754 12.27-46.548 31.258-1.734 5.681-2.455 11.704-2.172 17.73-5.769-1.681-11.767-2.391-17.669-2.046z" fill="#ffffff"/><path d="m344.091 191.499c-24.609 0-44.629 20.021-44.629 44.629 0 24.609 20.02 44.629 44.629 44.629 24.608 0 44.629-20.02 44.629-44.629s-20.02-44.629-44.629-44.629zm0 74.259c-16.338 0-29.63-13.292-29.63-29.631s13.292-29.63 29.63-29.63 29.63 13.292 29.63 29.63-13.292 29.631-29.63 29.631z" fill="#ffffff"/><path d="m149.305 269.715c-18.993 0-34.446 15.452-34.446 34.446s15.452 34.446 34.446 34.446 34.446-15.452 34.446-34.446-15.453-34.446-34.446-34.446zm0 53.893c-10.723 0-19.447-8.724-19.447-19.447s8.724-19.447 19.447-19.447 19.447 8.724 19.447 19.447-8.724 19.447-19.447 19.447z" fill="#ffffff"/></g></defs><g fi:class="KUsePattern"><pattern id="pattern_L1_19" width="350" height="350" patternUnits="userSpaceOnUse"><use xlink:href="#L1_19" x="-350" y="-350"/><use xlink:href="#L1_19" x="0" y="-350"/><use xlink:href="#L1_19" x="350" y="-350"/><use xlink:href="#L1_19" x="-350" y="0"/><use xlink:href="#L1_19" x="0" y="0"/><use xlink:href="#L1_19" x="350" y="0"/><use xlink:href="#L1_19" x="-350" y="350"/><use xlink:href="#L1_19" x="0" y="350"/><use xlink:href="#L1_19" x="350" y="350"/></pattern><rect x="0" y="0" width="100%" height="100%" fill="url(#pattern_L1_19)"/></g><g fi:class="KUsePattern"><pattern id="pattern_L1_18" width="350" height="350" patternUnits="userSpaceOnUse"><use xlink:href="#L1_18" x="-350" y="-350"/><use xlink:href="#L1_18" x="0" y="-350"/><use xlink:href="#L1_18" x="350" y="-350"/><use xlink:href="#L1_18" x="-350" y="0"/><use xlink:href="#L1_18" x="0" y="0"/><use xlink:href="#L1_18" x="350" y="0"/><use xlink:href="#L1_18" x="-350" y="350"/><use xlink:href="#L1_18" x="0" y="350"/><use xlink:href="#L1_18" x="350" y="350"/></pattern><rect x="0" y="0" width="100%" height="100%" fill="url(#pattern_L1_18)"/></g><g fi:class="KUsePattern"><pattern id="pattern_L1_20" width="350" height="350" patternUnits="userSpaceOnUse"><use xlink:href="#L1_20" x="-350" y="-350"/><use xlink:href="#L1_20" x="0" y="-350"/><use xlink:href="#L1_20" x="350" y="-350"/><use xlink:href="#L1_20" x="-350" y="0"/><use xlink:href="#L1_20" x="0" y="0"/><use xlink:href="#L1_20" x="350" y="0"/><use xlink:href="#L1_20" x="-350" y="350"/><use xlink:href="#L1_20" x="0" y="350"/><use xlink:href="#L1_20" x="350" y="350"/></pattern><rect x="0" y="0" width="100%" height="100%" fill="url(#pattern_L1_20)"/></g><g fi:class="KUsePattern"><pattern id="pattern_L1_21" width="350" height="350" patternUnits="userSpaceOnUse"><use xlink:href="#L1_21" x="-350" y="-350"/><use xlink:href="#L1_21" x="0" y="-350"/><use xlink:href="#L1_21" x="350" y="-350"/><use xlink:href="#L1_21" x="-350" y="0"/><use xlink:href="#L1_21" x="0" y="0"/><use xlink:href="#L1_21" x="350" y="0"/><use xlink:href="#L1_21" x="-350" y="350"/><use xlink:href="#L1_21" x="0" y="350"/><use xlink:href="#L1_21" x="350" y="350"/></pattern><rect x="0" y="0" width="100%" height="100%" fill="url(#pattern_L1_21)"/></g><g fi:class="KUsePattern"><pattern id="pattern_L1_27" width="350" height="350" patternUnits="userSpaceOnUse"><use xlink:href="#L1_27" x="-350" y="-350"/><use xlink:href="#L1_27" x="0" y="-350"/><use xlink:href="#L1_27" x="350" y="-350"/><use xlink:href="#L1_27" x="-350" y="0"/><use xlink:href="#L1_27" x="0" y="0"/><use xlink:href="#L1_27" x="350" y="0"/><use xlink:href="#L1_27" x="-350" y="350"/><use xlink:href="#L1_27" x="0" y="350"/><use xlink:href="#L1_27" x="350" y="350"/></pattern><rect x="0" y="0" width="100%" height="100%" fill="url(#pattern_L1_27)"/></g><g fi:class="KUsePattern"><pattern id="pattern_L1_28" width="350" height="350" patternUnits="userSpaceOnUse"><use xlink:href="#L1_28" x="-350" y="-350"/><use xlink:href="#L1_28" x="0" y="-350"/><use xlink:href="#L1_28" x="350" y="-350"/><use xlink:href="#L1_28" x="-350" y="0"/><use xlink:href="#L1_28" x="0" y="0"/><use xlink:href="#L1_28" x="350" y="0"/><use xlink:href="#L1_28" x="-350" y="350"/><use xlink:href="#L1_28" x="0" y="350"/><use xlink:href="#L1_28" x="350" y="350"/></pattern><rect x="0" y="0" width="100%" height="100%" fill="url(#pattern_L1_28)"/></g><g fi:class="KUsePattern"><pattern id="pattern_L1_30" width="350" height="350" patternUnits="userSpaceOnUse"><use xlink:href="#L1_30" x="-350" y="-350"/><use xlink:href="#L1_30" x="0" y="-350"/><use xlink:href="#L1_30" x="350" y="-350"/><use xlink:href="#L1_30" x="-350" y="0"/><use xlink:href="#L1_30" x="0" y="0"/><use xlink:href="#L1_30" x="350" y="0"/><use xlink:href="#L1_30" x="-350" y="350"/><use xlink:href="#L1_30" x="0" y="350"/><use xlink:href="#L1_30" x="350" y="350"/></pattern><rect x="0" y="0" width="100%" height="100%" fill="url(#pattern_L1_30)"/></g><g fi:class="KUsePattern"><pattern id="pattern_L1_32" width="350" height="350" patternUnits="userSpaceOnUse"><use xlink:href="#L1_32" x="-350" y="-350"/><use xlink:href="#L1_32" x="0" y="-350"/><use xlink:href="#L1_32" x="350" y="-350"/><use xlink:href="#L1_32" x="-350" y="0"/><use xlink:href="#L1_32" x="0" y="0"/><use xlink:href="#L1_32" x="350" y="0"/><use xlink:href="#L1_32" x="-350" y="350"/><use xlink:href="#L1_32" x="0" y="350"/><use xlink:href="#L1_32" x="350" y="350"/></pattern><rect x="0" y="0" width="100%" height="100%" fill="url(#pattern_L1_32)"/></g><g fi:class="KUsePattern"><pattern id="pattern_L1_34" width="350" height="350" patternUnits="userSpaceOnUse"><use xlink:href="#L1_34" x="-350" y="-350"/><use xlink:href="#L1_34" x="0" y="-350"/><use xlink:href="#L1_34" x="350" y="-350"/><use xlink:href="#L1_34" x="-350" y="0"/><use xlink:href="#L1_34" x="0" y="0"/><use xlink:href="#L1_34" x="350" y="0"/><use xlink:href="#L1_34" x="-350" y="350"/><use xlink:href="#L1_34" x="0" y="350"/><use xlink:href="#L1_34" x="350" y="350"/></pattern><rect x="0" y="0" width="100%" height="100%" fill="url(#pattern_L1_34)"/></g></svg>